<svg width="94" height="59" viewBox="0 0 94 59" fill="none" xmlns="http://www.w3.org/2000/svg">
<circle cx="3.5" cy="3.5" r="3.5" fill="#B88B3B"/>
<circle cx="3.5" cy="19.5" r="3.5" fill="#B88B3B"/>
<circle cx="3.5" cy="55.5" r="3.5" fill="#B88B3B"/>
<circle cx="3.5" cy="37.5" r="3.5" fill="#B88B3B"/>
<circle cx="9.5" cy="10.5" r="3.5" fill="#B88B3B"/>
<circle cx="9.5" cy="46.5" r="3.5" fill="#B88B3B"/>
<circle cx="9.5" cy="28.5" r="3.5" fill="#B88B3B"/>
<circle cx="14.5" cy="3.5" r="3.5" fill="#B88B3B"/>
<circle cx="14.5" cy="19.5" r="3.5" fill="#B88B3B"/>
<circle cx="14.5" cy="55.5" r="3.5" fill="#B88B3B"/>
<circle cx="14.5" cy="37.5" r="3.5" fill="#B88B3B"/>
<circle cx="20.5" cy="10.5" r="3.5" fill="#B88B3B"/>
<circle cx="20.5" cy="46.5" r="3.5" fill="#B88B3B"/>
<circle cx="20.5" cy="28.5" r="3.5" fill="#B88B3B"/>
<circle cx="25.5" cy="3.5" r="3.5" fill="#B88B3B"/>
<circle cx="25.5" cy="19.5" r="3.5" fill="#B88B3B"/>
<circle cx="25.5" cy="55.5" r="3.5" fill="#B88B3B"/>
<circle cx="25.5" cy="37.5" r="3.5" fill="#B88B3B"/>
<circle cx="31.5" cy="10.5" r="3.5" fill="#B88B3B"/>
<circle cx="31.5" cy="46.5" r="3.5" fill="#B88B3B"/>
<circle cx="31.5" cy="28.5" r="3.5" fill="#B88B3B"/>
<circle cx="36.5" cy="3.5" r="3.5" fill="#B88B3B"/>
<circle cx="36.5" cy="19.5" r="3.5" fill="#B88B3B"/>
<circle cx="36.5" cy="55.5" r="3.5" fill="#B88B3B"/>
<circle cx="36.5" cy="37.5" r="3.5" fill="#B88B3B"/>
<circle cx="42.5" cy="10.5" r="3.5" fill="#B88B3B"/>
<circle cx="42.5" cy="46.5" r="3.5" fill="#B88B3B"/>
<circle cx="42.5" cy="28.5" r="3.5" fill="#B88B3B"/>
<circle cx="47.5" cy="3.5" r="3.5" fill="#B88B3B"/>
<circle cx="47.5" cy="19.5" r="3.5" fill="#B88B3B"/>
<circle cx="47.5" cy="55.5" r="3.5" fill="#B88B3B"/>
<circle cx="47.5" cy="37.5" r="3.5" fill="#B88B3B"/>
<circle cx="53.5" cy="10.5" r="3.5" fill="#B88B3B"/>
<circle cx="53.5" cy="46.5" r="3.5" fill="#B88B3B"/>
<circle cx="53.5" cy="28.5" r="3.5" fill="#B88B3B"/>
<circle cx="58.5" cy="3.5" r="3.5" fill="#B88B3B"/>
<circle cx="58.5" cy="19.5" r="3.5" fill="#B88B3B"/>
<circle cx="58.5" cy="55.5" r="3.5" fill="#B88B3B"/>
<circle cx="58.5" cy="37.5" r="3.5" fill="#B88B3B"/>
<circle cx="64.5" cy="10.5" r="3.5" fill="#B88B3B"/>
<circle cx="64.5" cy="46.5" r="3.5" fill="#B88B3B"/>
<circle cx="64.5" cy="28.5" r="3.5" fill="#B88B3B"/>
<circle cx="69.5" cy="3.5" r="3.5" fill="#B88B3B"/>
<circle cx="69.5" cy="19.5" r="3.5" fill="#B88B3B"/>
<circle cx="69.5" cy="55.5" r="3.5" fill="#B88B3B"/>
<circle cx="69.5" cy="37.5" r="3.5" fill="#B88B3B"/>
<circle cx="75.5" cy="10.5" r="3.5" fill="#B88B3B"/>
<circle cx="85.5" cy="10.5" r="3.5" fill="#B88B3B"/>
<circle cx="75.5" cy="46.5" r="3.5" fill="#B88B3B"/>
<circle cx="85.5" cy="46.5" r="3.5" fill="#B88B3B"/>
<circle cx="75.5" cy="28.5" r="3.5" fill="#B88B3B"/>
<circle cx="85.5" cy="28.5" r="3.5" fill="#B88B3B"/>
<circle cx="80.5" cy="3.5" r="3.5" fill="#B88B3B"/>
<circle cx="90.5" cy="3.5" r="3.5" fill="#B88B3B"/>
<circle cx="80.5" cy="19.5" r="3.5" fill="#B88B3B"/>
<circle cx="90.5" cy="19.5" r="3.5" fill="#B88B3B"/>
<circle cx="80.5" cy="55.5" r="3.5" fill="#B88B3B"/>
<circle cx="90.5" cy="55.5" r="3.5" fill="#B88B3B"/>
<circle cx="80.5" cy="37.5" r="3.5" fill="#B88B3B"/>
<circle cx="90.5" cy="37.5" r="3.5" fill="#B88B3B"/>
</svg>
